<svg id="Layer_3" data-name="Layer 3" xmlns="http://www.w3.org/2000/svg" viewBox="0 0 130.85 245.42"><defs><style>.cls-1{fill:#fff;}.cls-2{fill:#0377be;}</style></defs><path d="M65.6.08c35.68,31.45,57,71,62.94,117.88,5,39,2.43,77.45-15.57,113.52-1.89,3.79-3.77,7.61-6,11.19-.62,1-2.48,1.67-3.78,1.69-23.84.44-47.68.84-71.53,1-5.43,0-8.37-4.09-10-8.45C17,224.74,12.23,212.53,8.7,200,4.07,183.56.88,166.81.85,149.57A209.61,209.61,0,0,1,21.18,58.7,234.36,234.36,0,0,1,60.63.08ZM64.35,1.62c-.52.26-.89.33-1.08.56-16,18.27-29.71,38-39.82,60.24C10.33,91.26,3.46,121.36,4.83,153c1.3,29.77,8.91,58.05,21.36,85.17,2.22,4.83,4.63,5.79,9.17,5.58,19.52-.87,39-1.7,58.57-2.22,7.34-.19,13.75-.92,14.91-10,0-.15.15-.29.22-.44a161.67,161.67,0,0,0,15.79-52c6.39-51.5-1.69-99.63-31.8-143C84.45,23.84,75.57,11.73,64.35,1.62Z"/><path class="cls-1" d="M64.35,1.62c11.22,10.11,20.1,22.22,28.7,34.6,30.11,43.33,38.19,91.46,31.8,143a161.67,161.67,0,0,1-15.79,52c-.07.15-.21.29-.22.44-1.16,9.05-7.57,9.78-14.91,10-19.53.52-39.05,1.35-58.57,2.22-4.54.21-6.95-.75-9.17-5.58C13.74,211.09,6.13,182.81,4.83,153c-1.37-31.68,5.5-61.78,18.62-90.62,10.11-22.22,23.81-42,39.82-60.24C63.46,2,63.83,1.88,64.35,1.62Zm-2.48,235,0,1c11.4-.67,22.8-1.25,34.19-2.08,1.7-.12,4.14-1,4.83-2.25a129.45,129.45,0,0,0,7.56-16.41c3.21-8.79,6.89-17.6,8.55-26.73,2.08-11.5,2.74-23.32,3.26-35,.9-20.08-.46-40-6.64-59.34-3-9.4-6-18.87-10.05-27.84a146.11,146.11,0,0,0-13-22.48A305.67,305.67,0,0,0,70.35,18.77c-5.37-6.25-7.07-5.84-12.43.5A194.53,194.53,0,0,0,26.8,70.65a199.2,199.2,0,0,0-14.39,53.77c-4.28,36.93,1.76,72,16.64,105.79,1.88,4.25,5,6.36,9.49,6.4C46.32,236.67,54.1,236.63,61.87,236.63Z"/><path d="M61.87,236.63c-7.77,0-15.55,0-23.33,0-4.52,0-7.61-2.15-9.49-6.4C14.17,196.4,8.13,161.35,12.41,124.42A199.2,199.2,0,0,1,26.8,70.65,194.53,194.53,0,0,1,57.92,19.27c5.36-6.34,7.06-6.75,12.43-.5A305.67,305.67,0,0,1,90.64,45.45a146.11,146.11,0,0,1,13,22.48c4,9,7,18.44,10.05,27.84,6.18,19.31,7.54,39.26,6.64,59.34-.52,11.72-1.18,23.54-3.26,35-1.66,9.13-5.34,17.94-8.55,26.73a129.45,129.45,0,0,1-7.56,16.41c-.69,1.27-3.13,2.13-4.83,2.25-11.39.83-22.79,1.41-34.19,2.08ZM63.65,17.37c-2.48,2.81-4.36,4.65-5.9,6.75-3.1,4.2-6.14,8.45-9,12.83-4.7,7.26-10,14.27-13.63,22-4.89,10.54-8.29,21.75-12.54,32.58-5.64,14.36-7.11,29.53-8.52,44.64s.37,29.91,3.31,44.84c3.44,17.45,8,34.37,15.74,50.34.73,1.52,3,3.28,4.52,3.26,17.55-.21,35.09-.83,52.63-1.16,6.26-.12,11.58-1,11.63-8.94,0-.45.43-.88.64-1.33a145.33,145.33,0,0,0,11.71-36c5.25-29.77,5.1-59.3-2.69-88.55-3.25-12.23-7.07-24.36-13.92-35.24-5.88-9.35-11.24-19.07-17.67-28C75.43,29.07,69.48,23.72,63.65,17.37Z"/><path class="cls-2" d="M63.65,17.37C69.48,23.72,75.43,29.07,80,35.43c6.43,9,11.79,18.68,17.67,28,6.85,10.88,10.67,23,13.92,35.24,7.79,29.25,7.94,58.78,2.69,88.55a145.33,145.33,0,0,1-11.71,36c-.21.45-.64.88-.64,1.33,0,8-5.37,8.82-11.63,8.94-17.54.33-35.08.95-52.63,1.16-1.53,0-3.79-1.74-4.52-3.26-7.79-16-12.3-32.89-15.74-50.34-2.94-14.93-4.72-29.78-3.31-44.84S17,105.94,22.61,91.58c4.25-10.83,7.65-22,12.54-32.58,3.61-7.78,8.93-14.79,13.63-22,2.83-4.38,5.87-8.63,9-12.83C59.29,22,61.17,20.18,63.65,17.37ZM37.85,159.46c-4.07,0-9.7-.17-15.3.06-3.44.15-5.42,1.89-4.65,5.82,2.68,13.78,4.72,27.71,8.09,41.3,1.88,7.58,5.87,14.64,9.06,21.87.45,1,1.73,2.31,2.67,2.35,5.75.25,11.52.23,17.28.18,12.39-.12,24.78-.2,37.16-.6a6.64,6.64,0,0,0,4.49-2.92,38.68,38.68,0,0,0,4.44-9.4c4.78-16.15,9.65-32.29,13.82-48.59,2.57-10.06-.83-13.58-11-13.13-1,0-2,.2-3,.24Z"/><path d="M37.85,159.46l63.06-2.82c1,0,2-.2,3-.24,10.2-.45,13.6,3.07,11,13.13-4.17,16.3-9,32.44-13.82,48.59a38.68,38.68,0,0,1-4.44,9.4,6.64,6.64,0,0,1-4.49,2.92c-12.38.4-24.77.48-37.16.6-5.76.05-11.53.07-17.28-.18-.94,0-2.22-1.33-2.67-2.35-3.19-7.23-7.18-14.29-9.06-21.87-3.37-13.59-5.41-27.52-8.09-41.3-.77-3.93,1.21-5.67,4.65-5.82C28.15,159.29,33.78,159.46,37.85,159.46Zm.43,68.27c16.59-.54,33.11-1.23,49.64-1.49,4.08-.07,6.26-1.29,7.86-5.05,7.47-17.62,13-35.73,15.07-54.83.6-5.43.38-6-5.2-6-1.16,0-2.32,0-3.48.08l-77.83,1.89c-1.45,0-2.9,0-5.13,0C25.14,184.42,26.86,207.12,38.28,227.73Z"/><path class="cls-1" d="M38.28,227.73c-11.42-20.61-13.14-43.31-19.07-65.39,2.23,0,3.68,0,5.13,0l77.83-1.89c1.16,0,2.32-.09,3.48-.08,5.58,0,5.8.56,5.2,6-2.1,19.1-7.6,37.21-15.07,54.83-1.6,3.76-3.78,5-7.86,5.05C71.39,226.5,54.87,227.19,38.28,227.73Z"/></svg>