<svg id="Layer_6" data-name="Layer 6" xmlns="http://www.w3.org/2000/svg" viewBox="0 0 130.85 245.42"><defs><style>.cls-1{fill:#fff;}.cls-2{fill:#795649;}</style></defs><path d="M65.67.11c35.69,31.44,57,70.94,63,117.87,5,39,2.43,77.45-15.57,113.53-1.89,3.78-3.77,7.6-6,11.18-.61,1-2.47,1.67-3.78,1.7-23.83.43-47.68.83-71.52,1-5.43.05-8.37-4.08-10-8.45-4.63-12.21-9.42-24.42-12.95-37C4.15,183.58,1,166.83.92,149.59A209.76,209.76,0,0,1,21.25,58.72,234.57,234.57,0,0,1,60.7.11ZM64.43,1.64c-.52.26-.89.33-1.09.56-16,18.28-29.71,38-39.81,60.24-13.12,28.84-20,58.94-18.62,90.62,1.29,29.77,8.91,58.05,21.36,85.17,2.22,4.83,4.62,5.79,9.16,5.58,19.52-.87,39.05-1.7,58.58-2.22,7.34-.19,13.75-.92,14.9-10a1.55,1.55,0,0,1,.23-.44,161.92,161.92,0,0,0,15.79-52c6.39-51.5-1.7-99.63-31.81-143C84.52,23.86,75.65,11.75,64.43,1.64Z"/><path class="cls-1" d="M64.43,1.64c11.22,10.11,20.09,22.22,28.69,34.6,30.11,43.33,38.2,91.46,31.81,143a161.92,161.92,0,0,1-15.79,52,1.55,1.55,0,0,0-.23.44c-1.15,9-7.56,9.78-14.9,10-19.53.52-39.06,1.35-58.58,2.22-4.54.21-6.94-.75-9.16-5.58C13.82,211.11,6.2,182.83,4.91,153.06c-1.37-31.68,5.5-61.78,18.62-90.62,10.1-22.22,23.81-42,39.81-60.24C63.54,2,63.91,1.9,64.43,1.64ZM62,236.65l0,1c11.39-.67,22.8-1.25,34.18-2.08,1.71-.12,4.15-1,4.83-2.25a126.11,126.11,0,0,0,7.56-16.41c3.22-8.79,6.9-17.6,8.55-26.73,2.09-11.5,2.75-23.32,3.27-35,.89-20.09-.46-40-6.64-59.35-3-9.4-6-18.87-10-27.84a147.41,147.41,0,0,0-13-22.48A309.69,309.69,0,0,0,70.43,18.79c-5.37-6.25-7.07-5.84-12.43.5A194,194,0,0,0,26.88,70.67a199.22,199.22,0,0,0-14.4,53.77c-4.27,36.93,1.76,72,16.65,105.79,1.87,4.25,5,6.36,9.49,6.4C46.39,236.69,54.17,236.65,62,236.65Z"/><path d="M62,236.65c-7.78,0-15.56,0-23.33,0-4.52,0-7.62-2.15-9.49-6.4-14.89-33.8-20.92-68.86-16.65-105.79a199.22,199.22,0,0,1,14.4-53.77A194,194,0,0,1,58,19.29c5.36-6.34,7.06-6.75,12.43-.5A309.69,309.69,0,0,1,90.72,45.47a147.41,147.41,0,0,1,13,22.48c4,9,7,18.44,10,27.84,6.18,19.31,7.53,39.26,6.64,59.35-.52,11.71-1.18,23.53-3.27,35-1.65,9.13-5.33,17.94-8.55,26.73A126.11,126.11,0,0,1,101,233.31c-.68,1.27-3.12,2.13-4.83,2.25-11.38.83-22.79,1.41-34.18,2.08ZM63.72,17.39c-2.47,2.81-4.35,4.66-5.89,6.75-3.1,4.2-6.14,8.45-9,12.83-4.71,7.26-10,14.27-13.63,22.05C30.34,69.56,26.94,80.77,22.68,91.6c-5.63,14.36-7.11,29.53-8.52,44.64s.37,29.91,3.32,44.85c3.43,17.44,8,34.36,15.73,50.33.74,1.52,3,3.28,4.53,3.27,17.54-.22,35.08-.84,52.63-1.17,6.25-.12,11.57-1,11.63-8.94,0-.45.43-.88.64-1.33a144.89,144.89,0,0,0,11.7-36c5.26-29.77,5.11-59.3-2.68-88.55-3.26-12.23-7.08-24.36-13.92-35.24-5.89-9.35-11.25-19.07-17.67-28C75.51,29.09,69.55,23.74,63.72,17.39Z"/><path class="cls-2" d="M63.72,17.39c5.83,6.35,11.79,11.7,16.35,18.06,6.42,9,11.78,18.68,17.67,28,6.84,10.88,10.66,23,13.92,35.24,7.79,29.25,7.94,58.78,2.68,88.55a144.89,144.89,0,0,1-11.7,36c-.21.45-.64.88-.64,1.33-.06,8-5.38,8.82-11.63,8.94-17.55.33-35.09.95-52.63,1.17-1.53,0-3.79-1.75-4.53-3.27-7.78-16-12.3-32.89-15.73-50.33-3-14.94-4.72-29.79-3.32-44.85S17.05,106,22.68,91.6c4.26-10.83,7.66-22,12.55-32.58C38.84,51.24,44.15,44.23,48.86,37c2.83-4.38,5.87-8.63,9-12.83C59.37,22.05,61.25,20.2,63.72,17.39ZM37.92,159.48c-4.07,0-9.69-.17-15.3.07-3.43.14-5.41,1.88-4.64,5.81,2.68,13.78,4.71,27.71,8.09,41.31,1.88,7.57,5.87,14.64,9.06,21.86.44,1,1.72,2.31,2.67,2.35,5.75.25,11.52.23,17.28.18,12.39-.12,24.78-.2,37.16-.59a6.68,6.68,0,0,0,4.49-2.93,39.05,39.05,0,0,0,4.44-9.4C106,202,110.81,185.86,115,169.55c2.57-10.06-.83-13.58-11-13.13-1,.05-2,.2-3,.24Z"/><path d="M37.92,159.48,101,156.66c1,0,2-.19,3-.24,10.21-.45,13.61,3.07,11,13.13-4.18,16.31-9,32.44-13.82,48.59a39.05,39.05,0,0,1-4.44,9.4,6.68,6.68,0,0,1-4.49,2.93c-12.38.39-24.77.47-37.16.59-5.76.05-11.53.07-17.28-.18-.95,0-2.23-1.33-2.67-2.35-3.19-7.22-7.18-14.29-9.06-21.86-3.38-13.6-5.41-27.53-8.09-41.31-.77-3.93,1.21-5.67,4.64-5.81C28.23,159.31,33.85,159.48,37.92,159.48Zm.43,68.27c16.6-.54,33.12-1.23,49.65-1.49,4.08-.07,6.26-1.29,7.86-5,7.46-17.62,13-35.73,15.07-54.83.59-5.43.38-6-5.2-6-1.16,0-2.32.05-3.48.08l-77.83,1.89c-1.45,0-2.91,0-5.13,0C25.22,184.45,26.94,207.15,38.35,227.75Z"/><path class="cls-1" d="M38.35,227.75c-11.41-20.6-13.13-43.3-19.06-65.39,2.22,0,3.68,0,5.13,0l77.83-1.89c1.16,0,2.32-.09,3.48-.08,5.58,0,5.79.56,5.2,6-2.11,19.1-7.61,37.21-15.07,54.83-1.6,3.76-3.78,5-7.86,5C71.47,226.52,55,227.21,38.35,227.75Z"/></svg>