<svg id="Layer_5" data-name="Layer 5" xmlns="http://www.w3.org/2000/svg" viewBox="0 0 130.85 245.42"><defs><style>.cls-1{fill:#fff;}.cls-2{fill:#4daf4e;}</style></defs><path d="M65.67.08c35.69,31.45,57,71,63,117.88,5,39,2.43,77.45-15.57,113.52-1.89,3.79-3.77,7.61-6,11.19-.61,1-2.47,1.67-3.78,1.69-23.83.44-47.68.84-71.52,1-5.43,0-8.37-4.09-10-8.45-4.63-12.21-9.42-24.42-12.95-37C4.15,183.56,1,166.81.92,149.57A209.76,209.76,0,0,1,21.25,58.7,234.63,234.63,0,0,1,60.7.08ZM64.43,1.62c-.52.26-.89.33-1.09.56-16,18.27-29.71,38-39.81,60.24C10.41,91.26,3.54,121.36,4.91,153c1.29,29.77,8.91,58.05,21.36,85.17,2.22,4.83,4.62,5.79,9.16,5.58,19.52-.87,39.05-1.7,58.58-2.22,7.34-.19,13.75-.92,14.9-10a1.55,1.55,0,0,1,.23-.44,161.92,161.92,0,0,0,15.79-52c6.39-51.5-1.7-99.63-31.81-143C84.52,23.84,75.65,11.73,64.43,1.62Z"/><path class="cls-1" d="M64.43,1.62c11.22,10.11,20.09,22.22,28.69,34.6,30.11,43.33,38.2,91.46,31.81,143a161.92,161.92,0,0,1-15.79,52,1.55,1.55,0,0,0-.23.44c-1.15,9.05-7.56,9.78-14.9,10-19.53.52-39.06,1.35-58.58,2.22-4.54.21-6.94-.75-9.16-5.58C13.82,211.09,6.2,182.81,4.91,153c-1.37-31.68,5.5-61.78,18.62-90.62,10.1-22.22,23.81-42,39.81-60.24C63.54,2,63.91,1.88,64.43,1.62ZM62,236.63l0,1c11.39-.67,22.8-1.25,34.18-2.08,1.71-.12,4.15-1,4.83-2.25a126.72,126.72,0,0,0,7.56-16.41c3.22-8.79,6.9-17.6,8.55-26.73,2.09-11.5,2.75-23.32,3.27-35,.89-20.08-.46-40-6.64-59.34-3-9.4-6-18.87-10-27.84a146.93,146.93,0,0,0-13-22.48A309.69,309.69,0,0,0,70.43,18.77c-5.37-6.25-7.07-5.84-12.43.5A194,194,0,0,0,26.88,70.65a199.22,199.22,0,0,0-14.4,53.77c-4.27,36.93,1.76,72,16.65,105.79,1.87,4.25,5,6.36,9.49,6.4C46.39,236.67,54.17,236.63,62,236.63Z"/><path d="M62,236.63c-7.78,0-15.56,0-23.33,0-4.52,0-7.62-2.15-9.49-6.4C14.24,196.4,8.21,161.35,12.48,124.42a199.22,199.22,0,0,1,14.4-53.77A194,194,0,0,1,58,19.27c5.36-6.34,7.06-6.75,12.43-.5A309.69,309.69,0,0,1,90.72,45.45a146.93,146.93,0,0,1,13,22.48c4,9,7,18.44,10,27.84,6.18,19.31,7.53,39.26,6.64,59.34-.52,11.72-1.18,23.54-3.27,35-1.65,9.13-5.33,17.94-8.55,26.73A126.72,126.72,0,0,1,101,233.29c-.68,1.27-3.12,2.13-4.83,2.25-11.38.83-22.79,1.41-34.18,2.08ZM63.72,17.37c-2.47,2.81-4.35,4.65-5.89,6.75-3.1,4.2-6.14,8.45-9,12.83-4.71,7.26-10,14.27-13.63,22-4.89,10.54-8.29,21.75-12.55,32.58-5.63,14.36-7.11,29.53-8.52,44.64s.37,29.91,3.32,44.84c3.43,17.45,8,34.37,15.73,50.34.74,1.52,3,3.28,4.53,3.26,17.54-.21,35.08-.83,52.63-1.16,6.25-.12,11.57-1,11.63-8.94,0-.45.43-.88.64-1.33a144.89,144.89,0,0,0,11.7-36c5.26-29.77,5.11-59.3-2.68-88.55-3.26-12.23-7.08-24.36-13.92-35.24-5.89-9.35-11.25-19.07-17.67-28C75.51,29.07,69.55,23.72,63.72,17.37Z"/><path class="cls-2" d="M63.72,17.37c5.83,6.35,11.79,11.7,16.35,18.06,6.42,9,11.78,18.68,17.67,28,6.84,10.88,10.66,23,13.92,35.24,7.79,29.25,7.94,58.78,2.68,88.55a144.89,144.89,0,0,1-11.7,36c-.21.45-.64.88-.64,1.33-.06,8-5.38,8.82-11.63,8.94-17.55.33-35.09.95-52.63,1.16-1.53,0-3.79-1.74-4.53-3.26-7.78-16-12.3-32.89-15.73-50.34-3-14.93-4.72-29.78-3.32-44.84s2.89-30.28,8.52-44.64c4.26-10.83,7.66-22,12.55-32.58,3.61-7.78,8.92-14.79,13.63-22,2.83-4.38,5.87-8.63,9-12.83C59.37,22,61.25,20.18,63.72,17.37ZM37.92,159.46c-4.07,0-9.69-.17-15.3.06-3.43.15-5.41,1.89-4.64,5.82,2.68,13.78,4.71,27.71,8.09,41.3,1.88,7.58,5.87,14.64,9.06,21.87.44,1,1.72,2.31,2.67,2.35,5.75.25,11.52.23,17.28.18,12.39-.12,24.78-.2,37.16-.6a6.66,6.66,0,0,0,4.49-2.92,39.05,39.05,0,0,0,4.44-9.4C106,202,110.81,185.83,115,169.53c2.57-10.06-.83-13.58-11-13.13-1,0-2,.2-3,.24Z"/><path d="M37.92,159.46,101,156.64c1,0,2-.2,3-.24,10.21-.45,13.61,3.07,11,13.13-4.18,16.3-9,32.44-13.82,48.59a39.05,39.05,0,0,1-4.44,9.4,6.66,6.66,0,0,1-4.49,2.92c-12.38.4-24.77.48-37.16.6-5.76.05-11.53.07-17.28-.18-.95,0-2.23-1.33-2.67-2.35-3.19-7.23-7.18-14.29-9.06-21.87-3.38-13.59-5.41-27.52-8.09-41.3-.77-3.93,1.21-5.67,4.64-5.82C28.23,159.29,33.85,159.46,37.92,159.46Zm.43,68.27c16.6-.54,33.12-1.23,49.65-1.49,4.08-.07,6.26-1.29,7.86-5.05,7.46-17.62,13-35.73,15.07-54.83.59-5.43.38-6-5.2-6-1.16,0-2.32,0-3.48.08l-77.83,1.89c-1.45,0-2.91,0-5.13,0C25.22,184.42,26.94,207.12,38.35,227.73Z"/><path class="cls-1" d="M38.35,227.73c-11.41-20.61-13.13-43.31-19.06-65.39,2.22,0,3.68,0,5.13,0l77.83-1.89c1.16,0,2.32-.09,3.48-.08,5.58,0,5.79.56,5.2,6-2.11,19.1-7.61,37.21-15.07,54.83-1.6,3.76-3.78,5-7.86,5.05C71.47,226.5,55,227.19,38.35,227.73Z"/></svg>