<svg id="Layer_1" data-name="Layer 1" xmlns="http://www.w3.org/2000/svg" viewBox="0 0 129.93 245.32"><defs><style>.cls-1{fill:#fff;}.cls-2{fill:#f8981d;}</style></defs><path d="M64.75,0c35.69,31.44,57,70.94,62.94,117.87,5,39,2.44,77.45-15.57,113.53-1.89,3.79-3.77,7.6-6,11.19-.61,1-2.48,1.67-3.78,1.69-23.84.44-47.68.83-71.52,1-5.43,0-8.37-4.09-10-8.45-4.62-12.21-9.41-24.43-12.94-37C3.23,183.48,0,166.72,0,149.49A209.58,209.58,0,0,1,20.33,58.62,234.63,234.63,0,0,1,59.78,0ZM63.51,1.54a4.44,4.44,0,0,0-1.09.55c-16,18.28-29.71,38-39.82,60.25C9.49,91.17,2.61,121.28,4,153,5.28,182.73,12.9,211,25.35,238.12c2.22,4.83,4.62,5.79,9.16,5.59,19.52-.87,39-1.71,58.57-2.22,7.35-.2,13.75-.93,14.91-10a1.65,1.65,0,0,1,.22-.44,162.07,162.07,0,0,0,15.8-52c6.39-51.49-1.7-99.62-31.81-142.95C83.6,23.76,74.72,11.64,63.51,1.54Z"/><path class="cls-1" d="M63.51,1.54C74.72,11.64,83.6,23.76,92.2,36.14c30.11,43.33,38.2,91.46,31.81,143a162.07,162.07,0,0,1-15.8,52,1.65,1.65,0,0,0-.22.44c-1.16,9-7.56,9.77-14.91,10-19.53.51-39,1.35-58.57,2.22-4.54.2-6.94-.76-9.16-5.59C12.9,211,5.28,182.73,4,153,2.61,121.28,9.49,91.17,22.6,62.34c10.11-22.23,23.82-42,39.82-60.25A4.44,4.44,0,0,1,63.51,1.54ZM61,236.54l0,1c11.4-.66,22.81-1.24,34.19-2.07,1.7-.13,4.15-1,4.83-2.25a128.7,128.7,0,0,0,7.56-16.41c3.22-8.8,6.9-17.6,8.55-26.73,2.08-11.51,2.74-23.32,3.26-35,.9-20.09-.46-40-6.64-59.35-3-9.39-6-18.86-10-27.83a145.86,145.86,0,0,0-13-22.49A308.94,308.94,0,0,0,69.51,18.69c-5.38-6.26-7.07-5.85-12.44.49A194.45,194.45,0,0,0,26,70.57a198.78,198.78,0,0,0-14.4,53.76c-4.28,36.94,1.76,72,16.65,105.8,1.87,4.25,5,6.36,9.48,6.39C45.47,236.59,53.25,236.54,61,236.54Z"/><path d="M61,236.54c-7.78,0-15.56.05-23.34,0-4.52,0-7.61-2.14-9.48-6.39-14.89-33.81-20.93-68.86-16.65-105.8A198.78,198.78,0,0,1,26,70.57,194.45,194.45,0,0,1,57.07,19.18c5.37-6.34,7.06-6.75,12.44-.49A308.94,308.94,0,0,1,89.79,45.36a145.86,145.86,0,0,1,13,22.49c4,9,7,18.44,10,27.83C119,115,120.34,134.94,119.44,155c-.52,11.72-1.18,23.53-3.26,35-1.65,9.13-5.33,17.93-8.55,26.73a128.7,128.7,0,0,1-7.56,16.41c-.68,1.27-3.13,2.12-4.83,2.25-11.38.83-22.79,1.41-34.19,2.07ZM62.8,17.29c-2.47,2.8-4.35,4.65-5.9,6.75-3.09,4.19-6.13,8.45-9,12.82-4.7,7.26-10,14.27-13.63,22.06C29.42,69.45,26,80.66,21.76,91.5c-5.64,14.36-7.11,29.53-8.52,44.63S13.61,166,16.55,181c3.44,17.44,8,34.36,15.74,50.34.74,1.51,3,3.28,4.52,3.26,17.55-.22,35.09-.84,52.64-1.17,6.25-.11,11.57-.95,11.62-8.94,0-.44.43-.88.64-1.33a144.78,144.78,0,0,0,11.71-36c5.25-29.76,5.1-59.29-2.69-88.55-3.25-12.22-7.07-24.35-13.91-35.23C90.93,54,85.57,44.3,79.14,35.34,74.58,29,68.63,23.63,62.8,17.29Z"/><path class="cls-2" d="M62.8,17.29C68.63,23.63,74.58,29,79.14,35.34c6.43,9,11.79,18.69,17.68,28,6.84,10.88,10.66,23,13.91,35.23,7.79,29.26,7.94,58.79,2.69,88.55a144.78,144.78,0,0,1-11.71,36c-.21.45-.63.89-.64,1.33,0,8-5.37,8.83-11.62,8.94-17.55.33-35.09,1-52.64,1.17-1.53,0-3.78-1.75-4.52-3.26-7.78-16-12.3-32.9-15.74-50.34-2.94-14.94-4.71-29.78-3.31-44.85s2.88-30.27,8.52-44.63c4.25-10.84,7.66-22,12.54-32.58,3.61-7.79,8.93-14.8,13.63-22.06,2.84-4.37,5.88-8.63,9-12.82C58.45,21.94,60.33,20.09,62.8,17.29ZM37,159.38c-4.07,0-9.69-.17-15.3.06-3.43.14-5.41,1.88-4.65,5.82,2.68,13.77,4.72,27.7,8.09,41.3C27,214.14,31,221.2,34.2,228.43c.45,1,1.73,2.31,2.67,2.35,5.76.24,11.52.23,17.28.17,12.39-.11,24.78-.2,37.17-.59a6.6,6.6,0,0,0,4.48-2.93,38,38,0,0,0,4.44-9.4c4.78-16.14,9.65-32.28,13.82-48.59,2.58-10.06-.82-13.58-11-13.12-1,0-2,.19-3,.24Z"/><path d="M37,159.38l63.06-2.82c1-.05,2-.2,3-.24,10.21-.46,13.61,3.06,11,13.12-4.17,16.31-9,32.45-13.82,48.59a38,38,0,0,1-4.44,9.4,6.6,6.6,0,0,1-4.48,2.93c-12.39.39-24.78.48-37.17.59-5.76.06-11.52.07-17.28-.17-.94,0-2.22-1.34-2.67-2.35C31,221.2,27,214.14,25.14,206.56c-3.37-13.6-5.41-27.53-8.09-41.3-.76-3.94,1.22-5.68,4.65-5.82C27.31,159.21,32.93,159.38,37,159.38Zm.43,68.26c16.6-.53,33.12-1.22,49.64-1.49,4.08-.06,6.27-1.28,7.86-5.05,7.47-17.62,13-35.73,15.07-54.82.6-5.44.38-6-5.2-6-1.16,0-2.31.05-3.47.08q-38.93.94-77.84,1.89c-1.45,0-2.9,0-5.13,0C24.29,184.34,26,207,37.43,227.64Z"/><path class="cls-1" d="M37.43,227.64C26,207,24.29,184.34,18.36,162.26c2.23,0,3.68,0,5.13,0q38.92-.93,77.84-1.89c1.16,0,2.31-.08,3.47-.08,5.58,0,5.8.56,5.2,6-2.1,19.09-7.6,37.2-15.07,54.82-1.59,3.77-3.78,5-7.86,5.05C70.55,226.42,54,227.11,37.43,227.64Z"/></svg>